<svg width="128" height="128" viewBox="0 0 128 128" fill="none" xmlns="http://www.w3.org/2000/svg">
  <rect width="128" height="128" rx="28" fill="#007BFF"/>
  <path d="M42 38C38.6863 38 36 40.6863 36 44V58C36 61.3137 33.3137 64 30 64C33.3137 64 36 66.6863 36 70V84C36 87.3137 38.6863 90 42 90" stroke="white" stroke-width="8" stroke-linecap="round"/>
  <path d="M86 38C89.3137 38 92 40.6863 92 44V58C92 61.3137 94.6863 64 98 64C94.6863 64 92 66.6863 92 70V84C92 87.3137 89.3137 90 86 90" stroke="white" stroke-width="8" stroke-linecap="round"/>
  <circle cx="64" cy="64" r="12" fill="#FFD700">
    <animate attributeName="r" values="10;14;10" dur="2s" repeatCount="indefinite" />
  </circle>
</svg>